<?xml version="1.0" encoding="iso-8859-1"?>
<!-- Generator: Adobe Illustrator 19.1.0, SVG Export Plug-In . SVG Version: 6.00 Build 0)  -->
<svg version="1.1" id="Capa_1" xmlns="http://www.w3.org/2000/svg" xmlns:xlink="http://www.w3.org/1999/xlink" x="0px" y="0px"
	 viewBox="0 0 559.464 559.464" style="enable-background:new 0 0 559.464 559.464;" xml:space="preserve">
<g>
	<g>
		<g id="group-9svg">
			<path id="path-1_49_" d="M411.101,393.094H159.693c-7.434,0-13.468-6.034-13.468-13.468c0-7.443,6.034-13.477,13.468-13.477
				h251.408c7.434,0,13.468,6.034,13.468,13.477C424.57,387.061,418.536,393.094,411.101,393.094z"/>
			<path id="path-2_49_" d="M404.107,206.415c0,17.796-14.42,32.216-32.207,32.216s-32.198-14.42-32.198-32.216
				c0-17.787,14.411-32.207,32.198-32.207C389.687,174.208,404.107,188.628,404.107,206.415z"/>
			<path id="path-3_49_" d="M218.936,206.415c0,17.796-14.42,32.216-32.198,32.216c-17.787,0-32.198-14.42-32.198-32.216
				c0-17.787,14.411-32.207,32.198-32.207S218.936,188.628,218.936,206.415z"/>
			<path id="path-4_49_" d="M279.732,559.464c-154.212,0-279.664-125.488-279.664-279.727C0.076,125.488,125.529,0,279.732,0
				s279.664,125.488,279.664,279.736C559.396,433.975,433.935,559.464,279.732,559.464z M279.732,26.946
				c-139.352,0-252.728,113.403-252.728,252.791S140.38,532.527,279.732,532.527c139.361,0,252.728-113.403,252.728-252.791
				S419.093,26.946,279.732,26.946z"/>
		</g>
	</g>
</g>
</svg>
