<?xml version="1.0" encoding="iso-8859-1"?>
<!-- Generator: Adobe Illustrator 19.0.0, SVG Export Plug-In . SVG Version: 6.00 Build 0)  -->
<svg version="1.1" id="Capa_1" xmlns="http://www.w3.org/2000/svg" xmlns:xlink="http://www.w3.org/1999/xlink" x="0px" y="0px"
	 viewBox="0 0 512.002 512.002" style="enable-background:new 0 0 512.002 512.002;" xml:space="preserve">
<g>
	<g>
		<path d="M424.933,63.7C376.142,20.757,313.397-1.815,248.248,0.114c-65.44,1.948-126.989,28.529-173.306,74.847
			c-39.775,39.775-64.859,90.171-72.539,145.741C-5.026,274.456,5.03,330.214,30.72,377.704c1.357,2.509,3.938,3.933,6.604,3.933
			c1.205,0,2.427-0.291,3.562-0.905c3.644-1.971,4.999-6.522,3.028-10.165c-24.182-44.703-33.648-97.197-26.652-147.812
			c7.229-52.304,30.842-99.743,68.287-137.188c43.603-43.603,101.543-68.626,163.146-70.459
			c61.338-1.83,120.401,19.43,166.328,59.852c3.109,2.737,7.848,2.436,10.585-0.675C428.345,71.176,428.043,66.437,424.933,63.7z"/>
	</g>
</g>
<g>
	<g>
		<path d="M448.282,87.05c-2.736-3.109-7.476-3.411-10.585-0.675c-3.109,2.737-3.412,7.476-0.675,10.585
			c40.421,45.926,61.677,104.995,59.852,166.328c-1.833,61.603-26.856,119.543-70.459,163.146
			c-29.439,29.438-66.077,50.824-105.953,61.844c-36.855,10.185-75.934,11.444-113.393,3.713c0.173-1.15,0.265-2.326,0.265-3.524
			c0-4.369-1.196-8.463-3.279-11.973c6.77-4.137,11.296-11.598,11.296-20.095c0-4.369-1.196-8.463-3.279-11.973
			c6.769-4.138,11.295-11.598,11.295-20.095c0-3.009-0.567-5.887-1.601-8.534h66.255c12.977,0,23.534-10.558,23.534-23.534
			c0-12.976-10.558-23.534-23.534-23.534H143.714c-9.126,0-16.551-7.425-16.551-16.551v-48.102
			c0-12.977-10.558-23.534-23.534-23.534c-12.976,0-23.534,10.558-23.534,23.534v39.246c0,9.184-3.16,18.192-8.897,25.364
			l-7.473,9.341c-10.123,12.653-15.698,28.546-15.698,44.751v33.621c0,30.659,24.943,55.603,55.602,55.603H183.8
			c6.152,0,11.757-2.375,15.955-6.253c18.493,4.15,37.384,6.238,56.276,6.238c23.071,0,46.135-3.089,68.427-9.25
			c42.371-11.709,81.295-34.426,112.564-65.695c46.318-46.317,72.899-107.866,74.847-173.306
			C513.806,198.587,491.225,135.84,448.282,87.05z M191.816,464.931h-8.017c-4.142,0-7.5,3.358-7.5,7.5c0,4.142,3.358,7.5,7.5,7.5
			c4.706,0,8.534,3.829,8.534,8.534c0,4.705-3.828,8.535-8.534,8.535h-80.171c-22.388,0-40.602-18.214-40.602-40.603v-33.621
			c0-12.812,4.408-25.377,12.411-35.381l7.473-9.341c7.857-9.822,12.185-22.157,12.185-34.734v-39.246
			c0-4.706,3.829-8.534,8.534-8.534c4.705,0,8.534,3.829,8.534,8.534v48.102c0,17.397,14.154,31.551,31.551,31.551h144.307
			c4.706,0,8.534,3.829,8.534,8.534c0,4.705-3.829,8.534-8.534,8.534h-88.188c-4.142,0-7.5,3.358-7.5,7.5c0,4.142,3.358,7.5,7.5,7.5
			c4.706,0,8.534,3.829,8.534,8.534c0,4.705-3.828,8.534-8.534,8.534h-8.017c-4.142,0-7.5,3.358-7.5,7.5c0,4.142,3.358,7.5,7.5,7.5
			c4.706,0,8.534,3.828,8.534,8.534S196.521,464.931,191.816,464.931z"/>
	</g>
</g>
<g>
	<g>
		<path d="M179.136,172.62c-4.12-0.397-7.793,2.606-8.199,6.729l-1.179,11.968c-0.329,3.334-1.936,6.34-4.525,8.466
			c-2.59,2.125-5.854,3.116-9.187,2.786c-6.882-0.678-11.93-6.83-11.252-13.712l1.572-15.957
			c0.678-6.883,6.839-11.935,13.712-11.252c4.136,0.408,7.793-2.606,8.199-6.729c0.406-4.123-2.606-7.793-6.729-8.199
			c-15.115-1.479-28.621,9.596-30.11,24.709l-1.572,15.957c-1.489,15.113,9.596,28.621,24.709,30.11
			c0.92,0.091,1.838,0.136,2.751,0.136c6.348,0,12.45-2.174,17.422-6.254c5.687-4.667,9.216-11.27,9.938-18.591l1.179-11.968
			C186.271,176.697,183.259,173.026,179.136,172.62z"/>
	</g>
</g>
<g>
	<g>
		<path d="M346.683,189.127c-4.125-0.403-7.793,2.606-8.199,6.729l-1.179,11.968c-0.678,6.882-6.827,11.927-13.712,11.252
			c-6.882-0.678-11.93-6.829-11.252-13.712l1.572-15.957c0.329-3.334,1.936-6.341,4.526-8.466c2.589-2.125,5.851-3.12,9.186-2.786
			c4.122,0.403,7.793-2.606,8.199-6.729c0.406-4.122-2.606-7.793-6.729-8.199c-7.323-0.722-14.485,1.452-20.172,6.119
			c-5.687,4.667-9.217,11.269-9.938,18.591l-1.572,15.957c-0.721,7.321,1.452,14.485,6.119,20.172s11.269,9.216,18.591,9.937
			c0.92,0.091,1.838,0.136,2.751,0.136c6.348,0,12.449-2.174,17.421-6.254c5.687-4.667,9.217-11.269,9.938-18.591l1.179-11.968
			C353.818,193.203,350.806,189.533,346.683,189.127z"/>
	</g>
</g>
<g>
	<g>
		<path d="M299.418,321.429c-2.375-1.199-58.913-29.378-123.773-30.862c-4.126-0.08-7.575,3.185-7.669,7.327
			c-0.096,4.142,3.184,7.576,7.326,7.67c61.373,1.404,116.807,28.979,117.356,29.256c1.084,0.547,2.237,0.806,3.374,0.806
			c2.741,0,5.382-1.508,6.701-4.122C304.6,327.807,303.115,323.296,299.418,321.429z"/>
	</g>
</g>
<g>
	<g>
		<path d="M196.501,121.842c-1.79-1.432-44.428-34.768-96.227-8.869c-3.705,1.852-5.207,6.357-3.354,10.062
			c1.853,3.705,6.356,5.207,10.062,3.354c43.006-21.5,78.592,5.937,80.16,7.175c1.381,1.1,3.03,1.635,4.669,1.635
			c2.2,0,4.38-0.964,5.861-2.815C200.26,129.15,199.735,124.43,196.501,121.842z"/>
	</g>
</g>
<g>
	<g>
		<path d="M391.58,126.228c-0.812-4.062-4.765-6.693-8.825-5.884l-80.17,16.034c-4.062,0.812-6.696,4.764-5.884,8.825
			c0.713,3.565,3.845,6.031,7.347,6.031c0.487,0,0.982-0.048,1.479-0.147l80.17-16.034
			C389.758,134.241,392.392,130.29,391.58,126.228z"/>
	</g>
</g>
<g>
</g>
<g>
</g>
<g>
</g>
<g>
</g>
<g>
</g>
<g>
</g>
<g>
</g>
<g>
</g>
<g>
</g>
<g>
</g>
<g>
</g>
<g>
</g>
<g>
</g>
<g>
</g>
<g>
</g>
</svg>
